PathFileType	4	(X/Y/Z)	D:\TRACE\v60_Jaco2_6-2-23\v60_baseline_4-v60.trc
DataRate	CameraRate	NumFrames	NumMarkers	Units	OrigDataRate	OrigDataStartFrame	OrigNumFrames
100.00	100.00	      24	9	mm	100.00	4063	      6500
Frame#	Time	front left toe			Front right toe			aft left toe			aft right toe			Arm			FL body			FR body			AL Body			AR Body			
		X1	Y1	Z1	X2	Y2	Z2	X3	Y3	Z3	X4	Y4	Z4	X5	Y5	Z5	X6	Y6	Z6	X7	Y7	Z7	X8	Y8	Z8	X9	Y9	Z9	

4063	40.620	-142.89682	141.90657	-151.85059	233.94223	15.91204	-181.47543	-104.86206	14.75728	469.15466	266.79770	142.67754	448.72891	-68.69946	1208.13208	-278.33667	-42.36034	577.29114	-288.41684	117.19916	577.77515	-299.81952	21.64016	553.77014	655.11029	177.66263	547.55481	645.14752	
4064	40.630	-143.71646	144.72740	-151.11359	233.98528	15.88187	-181.42604	-104.92645	14.77866	469.15778	268.33331	144.85902	449.30624	-68.79903	1208.00427	-278.60449	-42.09322	576.86566	-288.01630	117.41808	577.22009	-298.61411	20.66600	553.93225	655.54291	177.03859	548.02533	645.57269	
4065	40.640	-143.67500	143.36595	-150.15776	234.11565	15.98952	-181.31158	-104.83665	14.83782	469.15900	267.59360	143.07159	450.52411	-68.48250	1208.04443	-278.63849	-41.94910	576.68170	-287.71286	117.75054	577.13843	-298.23047	20.32906	554.14886	655.83990	176.42990	548.20062	646.07135	
4066	40.650	-143.29178	140.00493	-148.71086	234.15456	16.04349	-181.21124	-104.79635	14.88691	469.10681	268.57623	140.01366	452.29883	-68.26636	1208.02100	-278.32959	-41.77089	576.52863	-287.57022	117.86009	577.11261	-297.84091	20.04039	554.22961	656.67322	176.67487	548.69971	646.91772	
4067	40.660	-142.37679	135.35104	-147.60059	234.15793	16.02797	-181.23807	-104.87011	14.78602	469.16473	268.42593	135.44540	454.08951	-68.25342	1207.88306	-278.11832	-41.46880	576.29559	-287.09061	118.00523	576.84998	-297.55557	19.74768	554.50439	656.69965	176.29631	548.78699	647.24976	
4068	40.670	-141.57509	130.02933	-146.95039	234.15828	16.03058	-181.20500	-104.95489	14.70002	469.19421	268.44943	130.07111	455.91980	-67.72037	1207.70264	-277.52341	-40.84031	576.24396	-286.73996	118.46931	576.76678	-297.04004	19.28478	554.42596	657.19543	175.87469	548.77209	647.54089	
4069	40.680	-140.97112	124.32195	-146.16783	234.21030	16.04260	-181.17523	-105.05270	14.65305	469.19043	267.42419	123.61550	457.12534	-67.68139	1207.53906	-277.31329	-40.55230	576.27148	-286.31430	119.61627	576.94818	-296.54565	19.05067	554.33051	657.47986	175.16766	548.45251	648.08734	
4070	40.690	-140.88429	118.39227	-145.68639	234.22603	16.04645	-181.14520	-105.06606	14.64458	469.12769	268.88736	116.63235	458.56714	-67.47196	1207.34973	-276.79697	-40.41415	576.38470	-286.00641	119.83848	576.99146	-296.22852	18.83159	554.10608	658.19739	175.10059	548.40430	648.67725	
4071	40.700	-141.05191	111.70835	-145.19446	234.28186	16.06113	-181.15559	-105.08649	14.70328	469.03595	269.19507	109.10790	459.48590	-67.54497	1207.31104	-276.58130	-40.14257	576.38080	-285.75516	120.25266	577.12024	-295.95035	18.37823	554.07385	658.37012	175.01883	548.63141	649.18829	
4072	40.710	-140.75392	104.32044	-144.63034	234.28476	16.04705	-181.10992	-105.18704	14.61689	469.05142	269.18878	101.08862	460.04846	-67.89951	1207.37598	-276.49191	-39.58997	576.33917	-285.35864	120.94841	577.11041	-295.29062	17.99799	553.67572	658.64832	174.45334	548.36554	649.55359	
4073	40.720	-140.52596	96.58685	-144.06172	234.28105	16.00666	-181.09238	-105.25588	14.46453	469.05600	270.56699	93.65793	460.93024	-67.65409	1207.28259	-276.10037	-39.17836	576.18634	-284.98569	121.23692	577.06818	-294.73795	17.71269	553.84503	658.93646	174.08566	548.23981	649.90875	
4074	40.730	-140.31810	88.37157	-143.48460	234.25465	15.98046	-181.03810	-105.24318	14.47432	469.12546	269.56940	84.74117	461.59613	-67.19762	1207.10583	-275.65915	-38.88313	576.03528	-284.65768	121.20795	576.99323	-294.57892	17.69114	553.80756	659.31549	173.98648	548.07318	650.51862	
4075	40.740	-140.06346	79.75771	-142.34204	234.30875	15.98517	-180.98296	-105.21289	14.50282	469.11298	269.52164	75.59624	462.49570	-66.50516	1207.07751	-275.15424	-38.72367	576.06085	-284.39651	121.58094	576.94983	-294.23920	17.79157	553.57605	660.16449	174.20311	548.30048	651.00659	
4076	40.750	-139.95605	70.66191	-141.54958	234.31883	15.98174	-180.88831	-105.18788	14.49904	469.13794	269.28171	67.03262	462.99902	-65.95425	1207.36853	-274.94843	-38.51518	576.01379	-284.13733	122.13795	577.03351	-293.64240	17.55601	553.55121	660.45105	174.01701	548.31378	651.38287	
4077	40.760	-140.02977	62.13780	-140.76985	234.31984	15.96309	-180.82327	-105.22678	14.44029	469.13257	269.41455	58.55310	463.47610	-65.82494	1207.42249	-274.87619	-38.13846	575.99359	-283.75519	121.85251	576.86768	-293.18475	17.35798	553.49402	660.63898	173.81705	548.16986	651.79736	
4078	40.770	-140.61136	54.13587	-140.25052	234.31348	15.90296	-180.73119	-105.32114	14.40950	469.08118	269.53702	50.22108	463.60410	-65.04903	1207.38464	-274.16446	-37.78316	575.97437	-283.51456	122.11166	576.91003	-292.88266	17.16460	553.64319	660.74585	173.73837	548.15320	652.27930	
4079	40.780	-140.44258	46.01202	-139.94026	234.29498	15.85898	-180.71341	-105.31306	14.38566	469.12741	269.51788	42.35091	463.07581	-64.70890	1207.22205	-273.78497	-37.36329	575.95001	-283.12717	122.46676	576.84204	-292.24939	17.26863	553.51160	661.03369	173.63493	547.89197	652.54663	
4080	40.790	-140.86214	39.19562	-140.12811	234.33720	15.82208	-180.67972	-105.31295	14.45866	469.11978	269.77008	35.16700	463.10028	-64.84666	1207.25745	-273.74512	-37.01207	576.18158	-282.98810	123.08318	576.77344	-291.65625	17.27677	553.28534	661.28741	173.83965	547.74109	652.82269	
4081	40.800	-140.65009	32.17390	-140.09827	234.43175	15.80070	-180.61328	-105.29922	14.53908	469.10205	269.52524	28.25122	462.61023	-64.25598	1207.31030	-273.25000	-36.56705	576.38971	-282.73535	123.33745	576.90723	-291.49878	17.69515	552.81891	661.98938	173.83629	547.36212	653.05273	
4082	40.810	-140.57747	25.75274	-139.89905	234.42035	15.75254	-180.53001	-105.28770	14.49454	469.10489	269.92679	21.90477	462.66904	-63.21524	1207.56140	-272.42511	-36.39773	576.60425	-282.40799	123.50694	576.96307	-291.33856	17.48124	552.68488	662.14783	174.15347	547.34869	653.50739	
4083	40.820	-140.92622	20.39502	-140.49904	234.38647	15.72733	-180.53554	-105.25970	14.36903	469.09763	270.22473	20.86349	460.67731	-62.82019	1207.65076	-272.22382	-35.94165	576.52057	-282.09448	123.97802	577.01331	-290.97064	17.52706	552.62366	662.42432	174.17686	547.16058	653.91553	
4084	40.830	-142.28819	20.21676	-142.36302	234.43860	15.69740	-180.43619	-105.17138	14.45880	469.12061	270.54904	17.81900	461.25433	-62.38964	1207.75757	-271.72827	-35.21554	576.37939	-281.89636	124.51305	576.96228	-290.51947	17.40354	553.15704	662.38617	174.02049	547.77667	654.27490	
4085	40.840	-142.53148	18.24831	-141.74118	234.17896	15.67079	-180.35870	-104.84505	14.77645	469.23355	271.06805	19.02220	460.40945	-61.46263	1208.13684	-271.17078	-34.82137	576.64026	-281.57526	125.18449	577.26154	-290.15369	17.38063	554.40021	662.68683	173.94588	548.73499	654.68414	
4086	40.850	-142.03459	18.76515	-142.36569	234.31335	15.96134	-180.23587	-104.63729	15.06929	469.25809	270.51028	18.71857	461.66492	-61.25397	1208.80029	-271.51181	-34.15699	577.94220	-281.18158	125.36152	578.36749	-289.76437	17.61230	555.51990	663.23608	173.89778	549.20648	655.21179	
